# xmcd CD database file
# Copyright (C) 1996 Ti Kan
#
# Track frame offsets:
#  150
#  6910
#  9082
#  11542
#  13895
#  16205
#  18505
#  20855
#  23319
#  25710
#  27995
#  34002
#  36392
#  38757
#  41257
#  43617
#  45930
#  48275
#  50640
#  52947
#  55277
#  61507
#  63867
#  66150
#  68517
#  70895
#  73297
#  75670
#  78035
#  80395
#  82685
#  90527
#  92887
#  95372
#  97690
#  100130
#  102582
#  104882
#  107300
#  109695
#  112175
#  118725
#  121065
#  123457
#  125810
#  128315
#  130740
#  133070
#  135440
#  137842
#  140157
#  145975
#  148295
#  150690
#  153022
#  155355
#  157715
#  160057
#  162425
#  164782
#  167200
#  169562
#
# Disc length: 2327 seconds
#
# Revision: 1
# Processed by: cddbd v1.4b41PL1 Copyright (c) Steve Scherf et al.
# Submitted via: CDWizzard Release:4.13
#
DISCID=2509153e
DTITLE=Garth Brooks - Garth Brooks - Promo CD
DYEAR=1900
DGENRE=
TTITLE0=Not counting You
TTITLE1=I've got a good thing going
TTITLE2=If tomorrow never comes
TTITLE3=Everytime it rains
TTITLE4=Alabama City
TTITLE5=Much too young (to feel this damn old)
TTITLE6=Cowboy Bill
TTITLE7=Nobody gets off in this town
TTITLE8=I know one
TTITLE9=The dance
TTITLE10=The thunder rolls
TTITLE11=New way to fly
TTITLE12=Two of a kind, workin on a full house
TTITLE13=Victim of the game
TTITLE14=Friends in low places
TTITLE15=Wild horses
TTITLE16=Unanswered prayers
TTITLE17=Same old story
TTITLE18=Mr. Blue
TTITLE19=Wolves
TTITLE20=Against the grain
TTITLE21=Rodeo
TTITLE22=What she's doing now
TTITLE23=Burning bridges
TTITLE24=Papa loved mama
TTITLE25=Shameless
TTITLE26=Cold shoulder
TTITLE27=We bury the hatchet
TTITLE28=In lonesome dove
TTITLE29=The river
TTITLE30=We shall be free
TTITLE31=Somewhere other than the night
TTITLE32=Mr. Right
TTITLE33=Every now and then
TTITLE34=Walking after midnight
TTITLE35=Dixie chicken
TTITLE36=Learning to live again
TTITLE37=hat summer
TTITLE38=Night rider's lament
TTITLE39=Face to face
TTITLE40=Standing outside the fire
TTITLE41=The night I called the old man out
TTITLE42=American honky-tonk bar association
TTITLE43=One night a day
TTITLE44=Kickin and screamin
TTITLE45=Ain't going down (til the sun comes up)
TTITLE46=The red strokes
TTITLE47=Callin' baton rouge
TTITLE48=The night will only know
TTITLE49=The cowboy song
TTITLE50=Go tell it to the mountain
TTITLE51=God rest ye merry gentlemen
TTITLE52=The old man's back in town
TTITLE53=The gift
TTITLE54=Unto you this night
TTITLE55=White Christmas
TTITLE56=The friendly beasts
TTITLE57=Sanat looked a lot like daddy
TTITLE58=Silent night
TTITLE59=Mary's dream
TTITLE60=What child is this
TTITLE61=Track62
EXTD=Snippets from various albums
EXTT0=
EXTT1=
EXTT2=
EXTT3=
EXTT4=
EXTT5=
EXTT6=
EXTT7=
EXTT8=
EXTT9=
EXTT10=
EXTT11=
EXTT12=
EXTT13=
EXTT14=
EXTT15=
EXTT16=
EXTT17=
EXTT18=
EXTT19=
EXTT20=
EXTT21=
EXTT22=
EXTT23=
EXTT24=
EXTT25=
EXTT26=
EXTT27=
EXTT28=
EXTT29=
EXTT30=
EXTT31=
EXTT32=
EXTT33=
EXTT34=
EXTT35=
EXTT36=
EXTT37=
EXTT38=
EXTT39=
EXTT40=
EXTT41=
EXTT42=
EXTT43=
EXTT44=
EXTT45=
EXTT46=
EXTT47=
EXTT48=
EXTT49=
EXTT50=
EXTT51=
EXTT52=
EXTT53=
EXTT54=
EXTT55=
EXTT56=
EXTT57=
EXTT58=
EXTT59=
EXTT60=
EXTT61=
PLAYORDER=
